<?xml version="1.0" standalone="no"?>
<!DOCTYPE svg PUBLIC "-//W3C//DTD SVG 20010904//EN"
 "http://www.w3.org/TR/2001/REC-SVG-20010904/DTD/svg10.dtd">
<svg version="1.0" xmlns="http://www.w3.org/2000/svg"
 width="512.000000pt" height="512.000000pt" viewBox="0 0 512.000000 512.000000"
 preserveAspectRatio="xMidYMid meet">
<metadata>
Created by potrace 1.16, written by Peter Selinger 2001-2019
</metadata>
<g transform="translate(0.000000,512.000000) scale(0.100000,-0.100000)"
fill="#000000" stroke="none">
<path d="M2475 4323 c-385 -50 -809 -276 -1072 -573 -245 -277 -367 -582 -380
-955 -11 -299 23 -468 141 -700 41 -82 85 -161 96 -175 12 -14 -9 32 -45 102
-87 166 -120 267 -146 441 -30 204 -29 356 4 537 45 246 132 438 293 650 61
80 173 197 225 235 63 46 102 77 148 118 37 34 102 73 210 126 197 97 365 156
500 176 130 19 151 34 26 18z"/>
<path d="M2428 3959 c-257 -27 -481 -132 -643 -300 l-70 -73 72 66 c68 63 159
130 213 158 36 18 16 1 -78 -65 -179 -127 -273 -263 -306 -447 -10 -51 -26
-137 -37 -190 -12 -61 -19 -144 -20 -225 l-2 -128 -9 75 c-5 41 -7 120 -4 175
6 106 8 119 25 181 6 21 20 77 31 123 11 45 32 111 45 145 l24 61 -29 -34
c-43 -51 -86 -137 -112 -226 -33 -117 -33 -343 0 -465 44 -162 130 -329 220
-430 51 -58 64 -47 17 14 -56 73 -141 235 -156 296 -17 66 -16 320 1 395 6 28
18 91 26 140 27 166 156 385 283 478 31 22 58 43 61 46 3 3 23 18 45 32 222
147 548 218 820 179 85 -13 243 -52 348 -86 86 -28 117 -27 40 2 -26 9 -54 22
-60 27 -7 5 -13 6 -13 2 0 -4 -6 -3 -12 3 -21 17 -249 61 -370 72 -129 11
-238 11 -350 -1z"/>
<path d="M3295 3820 c3 -5 10 -10 16 -10 5 0 9 5 9 10 0 6 -7 10 -16 10 -8 0
-12 -4 -9 -10z"/>
<path d="M3330 3811 c0 -8 41 -23 47 -17 2 1 -8 8 -22 14 -14 6 -25 8 -25 3z"/>
<path d="M1684 3724 c-159 -136 -241 -241 -321 -411 -69 -146 -93 -257 -97
-452 -3 -107 0 -159 6 -150 6 9 8 -4 3 -38 -4 -37 -2 -53 6 -53 6 0 8 -7 5
-16 -15 -40 64 -295 138 -442 35 -69 123 -212 131 -212 2 0 -17 44 -42 98 -25
53 -49 111 -55 127 -16 52 -58 219 -58 230 0 5 22 -30 48 -80 50 -96 100 -173
127 -195 9 -7 -9 23 -40 68 -110 160 -176 338 -195 529 -6 59 -8 137 -5 173 8
81 50 295 69 346 20 56 94 207 105 213 5 4 36 47 69 98 34 50 93 126 133 167
39 42 69 76 67 76 -3 0 -45 -34 -94 -76z"/>
<path d="M2238 3759 c-21 -11 -38 -22 -38 -24 0 -5 79 32 89 41 12 11 -18 1
-51 -17z"/>
<path d="M2695 3764 c-135 -21 -332 -101 -456 -185 -138 -93 -275 -252 -339
-393 -16 -35 -40 -102 -52 -148 -41 -149 -27 -383 29 -491 23 -46 25 -26 3 54
-28 104 -26 215 4 333 30 113 57 172 77 168 11 -3 11 -1 2 9 -7 7 -8 17 -3 28
5 9 26 52 46 96 76 166 304 344 528 412 96 28 114 32 226 41 223 17 533 1 515
-28 -3 -5 4 -6 14 -3 36 9 238 -99 362 -194 207 -157 345 -407 406 -733 24
-132 24 -428 0 -560 -39 -209 -139 -437 -265 -606 -71 -95 -209 -237 -291
-300 -34 -25 -48 -41 -41 -48 18 -18 11 -36 -32 -83 l-43 -46 51 26 c109 55
242 155 349 261 61 60 100 101 88 91 -13 -10 -23 -14 -23 -8 0 15 99 143 116
150 8 3 11 9 8 14 -3 5 0 9 6 9 6 0 8 4 5 10 -3 5 -2 10 3 10 5 0 16 17 25 38
30 68 86 226 82 230 -2 2 3 11 11 19 8 8 12 19 9 24 -4 5 -1 9 5 9 7 0 10 6 7
14 -3 8 -1 17 6 20 9 4 9 7 1 11 -15 8 9 91 25 87 6 -1 11 2 11 8 0 5 -6 10
-12 10 -7 0 -5 5 5 11 25 15 21 45 -24 196 -22 74 -38 137 -36 140 3 2 18 -12
34 -33 15 -20 37 -48 49 -62 l21 -26 5 27 c3 14 2 24 -2 22 -16 -10 -46 81
-55 170 -4 33 -13 88 -21 121 -7 34 -16 75 -18 90 -18 97 -14 86 -89 244 -25
52 -68 130 -96 172 -59 90 -150 208 -160 208 -4 0 -8 7 -8 15 0 10 6 14 14 10
8 -3 17 -5 19 -5 3 0 2 -4 -1 -10 -4 -6 1 -7 11 -3 15 5 12 11 -17 36 -102 87
-283 189 -429 242 -149 54 -280 76 -465 80 -93 2 -183 1 -200 -1z"/>
<path d="M3782 3631 c256 -243 403 -479 477 -764 37 -143 40 -162 57 -342 l13
-150 -5 135 c-16 438 -146 740 -449 1046 -71 72 -146 141 -165 154 -19 12 13
-23 72 -79z"/>
<path d="M2080 3673 c-67 -40 -277 -237 -299 -283 -9 -17 -4 -14 15 10 56 72
198 203 272 251 42 28 79 52 81 55 11 11 -10 1 -69 -33z"/>
<path d="M2983 3560 c-155 -20 -332 -77 -453 -147 -94 -55 -218 -182 -262
-268 -33 -65 -67 -160 -83 -228 -12 -56 18 -22 41 46 35 103 80 179 155 260
81 88 184 167 263 202 85 38 81 30 -10 -18 -101 -53 -198 -130 -264 -209 -68
-81 -96 -130 -134 -238 -18 -50 -34 -88 -37 -86 -2 2 -5 -19 -7 -47 -1 -29 -3
-61 -4 -72 -3 -56 3 -103 15 -108 9 -3 13 13 14 58 1 34 12 95 23 136 12 41
22 79 24 84 7 30 50 107 86 154 60 79 234 237 311 282 63 37 142 63 154 51 3
-3 5 -1 5 4 0 6 30 11 68 12 37 2 69 7 70 12 2 6 19 10 38 10 63 0 35 18 -38
24 -65 6 -107 2 -213 -18 -16 -3 -10 1 15 10 68 23 162 28 259 13 86 -13 95
-14 109 -19 4 -1 11 -2 16 -1 5 1 13 -4 17 -11 7 -10 9 -10 9 0 0 6 5 12 11
12 5 0 7 -5 4 -10 -4 -6 -3 -10 2 -9 22 4 34 -2 27 -13 -6 -10 -4 -10 8 0 8 7
24 10 34 6 19 -5 19 -5 0 10 -23 18 -173 55 -264 63 l-67 7 50 13 c28 7 98 13
156 13 104 0 143 -7 257 -47 24 -8 45 -13 48 -10 6 6 -112 51 -171 66 -61 15
-202 21 -282 11z m-76 -56 c-3 -3 -12 -4 -19 -1 -8 3 -5 6 6 6 11 1 17 -2 13
-5z"/>
<path d="M1895 3439 c-22 -22 -33 -37 -25 -34 14 6 77 75 68 75 -2 0 -22 -18
-43 -41z"/>
<path d="M3610 3445 c19 -19 36 -35 39 -35 3 0 -10 16 -29 35 -19 19 -36 35
-39 35 -3 0 10 -16 29 -35z"/>
<path d="M1816 3341 c-35 -50 -86 -143 -86 -158 0 -4 16 20 34 55 19 35 45 77
58 95 30 40 41 57 35 57 -3 0 -21 -22 -41 -49z"/>
<path d="M2767 3273 c-43 -8 -77 -17 -75 -18 2 -2 48 0 103 5 173 17 297 18
347 6 26 -7 45 -9 42 -5 -18 30 -283 38 -417 12z"/>
<path d="M3205 3250 c3 -5 14 -10 23 -10 15 0 15 2 2 10 -20 13 -33 13 -25 0z"/>
<path d="M3572 3110 c7 -11 17 -20 22 -20 5 0 1 9 -9 20 -10 11 -20 20 -22 20
-2 0 2 -9 9 -20z"/>
<path d="M2578 3028 c-42 -51 -111 -131 -153 -178 -126 -140 -198 -250 -163
-250 33 0 327 309 382 400 36 62 46 102 24 98 -7 -2 -12 3 -10 10 1 6 1 12 -1
12 -1 0 -37 -42 -79 -92z"/>
<path d="M3603 3070 c3 -8 24 -56 47 -107 93 -208 118 -402 81 -628 -37 -220
-116 -421 -223 -562 -43 -58 -52 -81 -18 -50 43 38 -79 -99 -136 -154 -118
-112 -272 -204 -439 -262 -152 -52 -251 -70 -402 -71 -72 0 -129 -4 -127 -7 2
-4 66 -10 141 -14 149 -7 180 -12 166 -26 -9 -9 -211 -29 -240 -24 -10 2 -67
6 -128 9 -87 4 -105 2 -85 -7 16 -7 92 -11 210 -11 166 1 197 4 305 28 159 37
376 122 612 238 61 30 237 217 287 303 17 29 17 29 0 5 -69 -96 -263 -262
-372 -319 -22 -12 -23 -11 -12 9 6 12 37 47 68 78 32 31 76 82 99 112 23 30
54 69 69 85 52 60 136 186 164 248 33 73 86 234 96 292 4 22 8 49 10 60 3 11
6 94 8 185 6 216 -9 299 -85 467 -24 52 -113 166 -96 123z"/>
<path d="M1681 3044 c0 -11 3 -14 6 -6 3 7 2 16 -1 19 -3 4 -6 -2 -5 -13z"/>
<path d="M4280 3059 c0 -3 7 -29 16 -59 67 -227 94 -575 59 -781 -44 -264
-131 -462 -304 -692 -324 -431 -833 -676 -1471 -706 l-145 -7 187 -8 c241 -10
364 1 568 50 87 21 244 72 300 96 25 11 61 27 80 36 54 24 159 90 224 141 136
106 236 214 374 401 19 25 122 199 122 205 0 2 13 32 29 67 88 193 116 346
108 598 -5 144 -11 201 -37 325 -30 140 -82 308 -101 330 -5 5 -9 7 -9 4z"/>
<path d="M1672 3000 c0 -14 2 -19 5 -12 2 6 2 18 0 25 -3 6 -5 1 -5 -13z"/>
<path d="M1658 2954 c-5 -4 -8 -19 -8 -33 1 -23 2 -24 11 -8 11 19 9 53 -3 41z"/>
<path d="M1641 2783 c0 -53 3 -72 9 -58 12 28 12 123 0 130 -6 4 -10 -22 -9
-72z"/>
<path d="M2830 2774 c-41 -47 -106 -119 -143 -161 -78 -88 -172 -226 -158
-231 29 -10 102 40 167 113 38 44 94 106 124 139 110 121 138 177 102 209 -15
13 -24 7 -92 -69z"/>
<path d="M1658 2680 c-3 -19 -1 -38 5 -41 5 -4 7 -14 4 -23 -4 -9 -2 -16 4
-16 6 0 9 -6 6 -14 -3 -8 7 -40 23 -72 45 -94 63 -107 25 -19 -18 44 -40 112
-48 150 -13 64 -14 67 -19 35z"/>
<path d="M3871 2664 c0 -11 3 -14 6 -6 3 7 2 16 -1 19 -3 4 -6 -2 -5 -13z"/>
<path d="M3155 2572 c-2 -298 -296 -616 -637 -687 -38 -8 -113 -15 -166 -16
-81 -1 -92 -2 -67 -11 17 -6 100 -11 185 -12 145 -1 161 1 245 28 106 33 169
64 245 118 60 44 149 136 150 155 0 6 4 13 9 15 13 5 67 117 80 166 21 76 15
169 -16 249 l-28 71 0 -76z"/>
<path d="M4201 2614 c0 -11 3 -14 6 -6 3 7 2 16 -1 19 -3 4 -6 -2 -5 -13z"/>
<path d="M3882 2585 c0 -16 2 -22 5 -12 2 9 2 23 0 30 -3 6 -5 -1 -5 -18z"/>
<path d="M1896 2498 c5 -7 12 -17 16 -23 42 -52 45 -55 21 -12 -15 26 -32 47
-36 47 -5 0 -5 -6 -1 -12z"/>
<path d="M4211 2494 c0 -11 3 -14 6 -6 3 7 2 16 -1 19 -3 4 -6 -2 -5 -13z"/>
<path d="M3437 2385 c-19 -218 -120 -419 -297 -595 -47 -47 -122 -110 -165
-140 -44 -30 -82 -58 -83 -62 -2 -5 -8 -6 -13 -2 -5 3 -9 -2 -9 -10 0 -22 5
-20 66 13 28 17 55 27 58 24 3 -4 6 -1 6 5 0 7 7 12 15 12 8 0 15 5 15 12 0 6
3 9 6 5 11 -11 125 74 211 156 46 44 81 82 78 85 -3 3 8 28 23 56 90 160 127
329 103 476 -7 43 -7 42 -14 -35z"/>
<path d="M3605 2363 c-34 -162 -78 -270 -160 -394 -103 -154 -302 -332 -458
-409 -87 -43 -293 -100 -430 -119 -43 -6 -133 -12 -200 -12 -92 -1 -112 -3
-82 -10 77 -16 305 -10 417 10 330 61 550 190 740 436 119 153 172 281 185
445 6 78 -1 107 -12 53z"/>
<path d="M4313 2315 c0 -27 2 -38 4 -22 2 15 2 37 0 50 -2 12 -4 0 -4 -28z"/>
<path d="M1645 2050 c27 -27 51 -50 54 -50 3 0 -17 23 -44 50 -27 28 -51 50
-54 50 -3 0 17 -22 44 -50z"/>
<path d="M1730 1976 c0 -2 8 -10 18 -17 15 -13 16 -12 3 4 -13 16 -21 21 -21
13z"/>
<path d="M2984 1928 l-19 -23 23 19 c12 11 22 21 22 23 0 8 -8 2 -26 -19z"/>
<path d="M3732 1875 c-12 -25 -20 -45 -17 -45 7 0 47 81 43 86 -3 2 -14 -17
-26 -41z"/>
<path d="M2870 1833 c-25 -19 -46 -39 -47 -44 -1 -5 1 -5 4 1 2 5 11 10 19 10
8 0 14 5 14 10 0 6 6 10 13 10 6 0 20 12 30 25 23 31 22 31 -33 -12z"/>
<path d="M1300 1856 c0 -2 8 -10 18 -17 15 -13 16 -12 3 4 -13 16 -21 21 -21
13z"/>
<path d="M1650 1816 c0 -2 8 -10 18 -17 15 -13 16 -12 3 4 -13 16 -21 21 -21
13z"/>
<path d="M2784 1774 c-18 -14 -18 -15 4 -4 12 6 22 13 22 15 0 8 -5 6 -26 -11z"/>
<path d="M2675 1724 c-44 -18 -72 -34 -62 -34 23 0 117 39 137 57 18 16 21 17
-75 -23z"/>
<path d="M1350 1660 c22 -33 45 -60 51 -60 6 0 -11 27 -36 60 -25 33 -48 60
-51 60 -3 0 14 -27 36 -60z"/>
<path d="M2278 1713 c7 -3 16 -2 19 1 4 3 -2 6 -13 5 -11 0 -14 -3 -6 -6z"/>
<path d="M2518 1673 c7 -3 16 -2 19 1 4 3 -2 6 -13 5 -11 0 -14 -3 -6 -6z"/>
<path d="M2453 1663 c9 -2 23 -2 30 0 6 3 -1 5 -18 5 -16 0 -22 -2 -12 -5z"/>
<path d="M3900 1514 c0 -8 5 -12 10 -9 6 4 8 11 5 16 -9 14 -15 11 -15 -7z"/>
<path d="M2148 1443 c7 -3 16 -2 19 1 4 3 -2 6 -13 5 -11 0 -14 -3 -6 -6z"/>
<path d="M2208 1433 c7 -3 16 -2 19 1 4 3 -2 6 -13 5 -11 0 -14 -3 -6 -6z"/>
<path d="M3485 1350 c-56 -39 -292 -161 -405 -209 -170 -72 -350 -115 -570
-137 l-75 -8 50 -8 c59 -9 256 -3 346 11 35 6 80 10 99 9 44 -1 233 87 351
164 75 50 249 192 249 204 0 6 0 6 -45 -26z"/>
<path d="M2320 1246 c0 -2 7 -6 15 -10 8 -3 15 -1 15 4 0 6 -7 10 -15 10 -8 0
-15 -2 -15 -4z"/>
<path d="M2130 1196 c0 -2 7 -7 16 -10 8 -3 12 -2 9 4 -6 10 -25 14 -25 6z"/>
<path d="M2175 1180 c3 -5 10 -10 16 -10 5 0 9 5 9 10 0 6 -7 10 -16 10 -8 0
-12 -4 -9 -10z"/>
</g>
</svg>